<svg xmlns="http://www.w3.org/2000/svg" width="170" height="120" xmlns:xlink="http://www.w3.org/1999/xlink" viewBox="0 0 170 120"><style>.st1{fill:#fff}.st2{fill:#37003c}</style><image width="156" height="110" xlink:href="../Documents/Projects/premier-league/premier-league-web/src/i/elements/premier-league-logo-header.png" transform="scale(1.091)" overflow="visible" class="st0"/><path d="M112.9 120s17.4-22.7 22.5-33.5l-8.2-2S162.6 27.6 170.1 0H.1v120h112.8z" class="st1"/><path d="M39.6 17.2c4.5 2.1 7.5 4.7 8 5.1-.2-1.2-1.1-6.8-1.7-10.3 2.6 1.8 8.8 6.1 10.8 7.5.8-2.5 3.7-10.8 3.7-10.8s5.2 8.3 6 9.7c1.1-1.1 7.2-8 8.8-9.7.3 3.9.6 9.6.7 10.4.3-.4 2.7-3.7 6.6-6.8-1.7 3.4-2.5 8-2.9 11.8-3.9-1.1-8-1.7-12.2-1.7-8.1 0-15.8 2.1-22.4 5.9-1.1-3.7-2.9-8.2-5.4-11.1zm62.2 71.2l-3.6-4c-1 10.7-6.3 19.8-15.9 26.2l-1.5-5.8c-8.2 5.9-22.2 9.7-34.3 2.9 1.5-7.6 2.8-15.4 0-24.7-6.7 10.3-12.6 14.4-12.6 14.4-4.5-7.6-4.1-22.8-2.8-27.3l-7.5 2.3c0-5.1 3.7-15.9 9-22l-4.6-.7c3.2-6.5 7.9-12.1 13.8-16.4C40 36.2 40 43 45.1 45.6c-2.2-3.8-2.4-8.5-.2-11 2.3-2.5 6.1-1.6 8.5.3-.7-2.1-2.9-4.8-6-5 6-3.1 12.9-4.8 20.1-4.8 1.4 0 2.7.1 4 .2 2.1.8 5.2 3.8 6.6 5.7 0 0 .1-2.2-1.1-4.8 7.8 1.9 11.6 5.1 13.1 6.6.3 3.4 1.3 5.4 2.7 8.6-2.5-2.8-8.9-7.4-12-8.5 0 0-.3 2.9-1.3 4.3-6.1-4.4-9-5.5-9-5.5-6.7.9-10.9 3.5-13.3 5.5l2 1.7c-4 1.2-6.6 4.7-6.6 4.7 0 .1 3.6.6 3.6.6s-.4 4.2 4.9 6.8c4.5 2.2 10.9-.5 17 1.9-4-4.6-6.7-6.7-6.7-6.7s-1.6-.3-2.7-.3c-1.4 0-3.5.3-5.7-.6-1.1-.4-2.4-1.2-3.3-1.8 0 0 2.8-2.9 6.9-3.5 0 0 3.7 1 6.6 3.2 1.9-1.9 4-1.8 4-1.8s-2 1.9-1.4 4.1c2.9 2.6 6.1 6.3 6.1 6.3 3.2-1.8 10.2-1.4 11.7.3-1.8-2.4-4.5-4.3-6.5-6-.2-.9-2.5-4-2.8-4.3 0 0 2.1.7 4 2.3.5-.8 1.6-1.6 2.9-1.9 1.4 1.2 1.7 3 1.6 3.3-.6.8-1.3 1.1-1.3 1.1l3.4 3.7.3-2.7C103 59 107.3 72 101.8 88.4zM86.9 64.2v-5.8s-2.6-.8-5.4-3c-5.6.8-12.3 6.4-12.3 6.4s2.3 4.3 4.8 9c4.4.6 10.9-4.9 12.9-6.6zm5.6 10.5s-.4-2.4-2.4-4.6l-4.3.1s-5.9 5-9.4 5.1c0 0 2 3.7 3 5.6 2-.4 5.4-2 6.8-3.6 0 0 .9 3 .7 6.5 2-1.2 4.7-4.3 5.6-9.1zm1.8-19.1c-2.2 1.8-4 2.9-4 2.9v5.8c1.6 1.7 3.1 3.2 4.3 5.8 2.2-3.9 1.7-9.7-.3-14.5z" class="st2"/></svg>